#!OML:ASF H:\MichaelJackson\Top Level 1\Subject 1\Session 1\male.ASF
:FULLY-SPECIFIED
:DEGREES
593
root 3.86514 16.3338 -2.66568 0.909582 20.3081 -11.3927
lowerback -1.09378 2.16578 3.16569
upperback -0.47733 2.85792 1.37183
thorax 0.207747 1.42929 -0.327923
lowerneck -7.48857 -4.1496 2.14357
upperneck 6.92555 -5.94025 1.7849
head 3.55951 -2.80295 -0.10776
rclavicle 2.67365e-014 7.15625e-015
rhumerus -42.1461 7.36349 -87.7502
rradius 55.2705
rwrist 15.158
rhand -29.9849 -22.2885
rfingers 7.12502
rthumb -3.30283 -412.243
lclavicle 2.67365e-014 7.15625e-015
lhumerus -47.4904 -0.778467 85.2948
lradius 51.1419
lwrist 12.4185
lhand -0.311471 17.1272
lfingers 7.12502
lthumb 25.292 45.4705
rfemur -2.69814 -8.46323 31.1109
rtibia 31.5198
rfoot -28.6533 -3.57032
rtoes -2.09126
lfemur -53.6399 33.9626 -32.9371
ltibia 51.663
lfoot -13.8307 12.3285
ltoes 13.7467
594
root 3.8965 16.3128 -2.51473 0.658297 20.6195 -11.3903
lowerback -1.24007 2.26012 2.61063
upperback -0.53702 2.98547 1.37626
thorax 0.203858 1.49326 -0.00806854
lowerneck -7.51508 -4.36597 2.14851
upperneck 7.13811 -6.25582 1.99329
head 3.64639 -2.94506 -0.0614388
rclavicle -7.02207e-014 3.18055e-015
rhumerus -42.3653 7.80279 -87.7468
rradius 56.3526
rwrist 14.6312
rhand -29.2086 -21.103
rfingers 7.12502
rthumb -2.55315 -411.067
lclavicle -7.02207e-014 3.18055e-015
lhumerus -48.4013 -0.20858 85.2282
lradius 50.7473
lwrist 11.681
lhand 0.289004 16.9149
lfingers 7.12502
lthumb 25.8672 45.1756
rfemur -2.26505 -9.57236 30.7969
rtibia 32.3876
rfoot -28.9832 -2.48255
rtoes -2.92727
lfemur -52.5912 33.6447 -32.3446
ltibia 51.3817
lfoot -14.1553 11.7761
ltoes 19.241
595
root 3.92967 16.2947 -2.36349 0.375493 20.9493 -11.3486
lowerback -1.3498 2.33962 2.01579
upperback -0.578528 3.09588 1.36433
thorax 0.194302 1.54897 0.316017
lowerneck -7.56602 -4.58025 2.17099
upperneck 7.3797 -6.57441 2.21273
head 3.74931 -3.08622 -0.0161293
rclavicle 1.07046e-013 2.70347e-014
rhumerus -42.6163 8.12531 -87.7171
rradius 57.4828
rwrist 13.9465
rhand -28.2634 -20.0008
rfingers 7.12502
rthumb -1.6403 -409.974
lclavicle 1.07046e-013 2.70347e-014
lhumerus -49.2506 0.253832 85.1255
lradius 50.318
lwrist 11.1266
lhand 0.872889 16.761
lfingers 7.12502
lthumb 26.4262 44.9389
rfemur -2.07631 -10.9143 30.3362
rtibia 33.8096
rfoot -29.1706 -1.01003
rtoes -3.82119
lfemur -51.3425 33.2889 -31.6585
ltibia 51.1401
lfoot -14.5717 10.8144
ltoes 24.4098
596
root 3.96565 16.2801 -2.21351 0.0546497 21.2978 -11.3038
lowerback -1.4137 2.39894 1.43063
upperback -0.606536 3.18129 1.35217
thorax 0.171218 1.59235 0.632479
lowerneck -7.63959 -4.78425 2.20167
upperneck 7.65274 -6.88306 2.42802
head 3.86868 -3.22076 0.0254489
rclavicle -7.72278e-014 3.49861e-014
rhumerus -42.893 8.36502 -87.6597
rradius 58.6552
rwrist 13.0859
rhand -27.2326 -19.0361
rfingers 7.12502
rthumb -0.644716 -409.015
lclavicle -7.72278e-014 3.49861e-014
lhumerus -50.0387 0.646967 85.0019
lradius 49.839
lwrist 10.7721
lhand 1.41757 16.6415
lfingers 7.12502
lthumb 26.9474 44.74
rfemur -2.20984 -12.5156 29.7335
rtibia 35.8736
rfoot -29.0702 0.981541
rtoes -4.67271
lfemur -49.9174 32.8634 -30.8645
ltibia 50.9138
lfoot -15.1306 9.64296
ltoes 29.0353
597
root 4.00531 16.2683 -2.06674 -0.30952 21.6678 -11.2903
lowerback -1.417 2.43958 0.909537
upperback -0.625532 3.24254 1.34905
thorax 0.124985 1.62377 0.919616
lowerneck -7.74602 -4.97747 2.23489
upperneck 7.96194 -7.18041 2.62859
head 4.0081 -3.34827 0.0604039
rclavicle -3.58309e-014 1.90833e-014
rhumerus -43.1844 8.53745 -87.5644
rradius 59.8747
rwrist 12.0697
rhand -26.0247 -18.2709
rfingers 7.12502
rthumb 0.521882 -408.25
lclavicle -3.58309e-014 1.90833e-014
lhumerus -50.7578 0.991819 84.8708
lradius 49.293
lwrist 10.6108
lhand 1.88105 16.5476
lfingers 7.12502
lthumb 27.3908 44.5768
rfemur -2.73025 -14.3694 28.9981
rtibia 38.6294
rfoot -28.4372 3.59604
rtoes -5.20477
lfemur -48.3731 32.3487 -29.9782
ltibia 50.6901
lfoot -15.8591 8.48529
ltoes 33.0136
